<?xml version="1.0" encoding="utf-8"?>
<!-- Generator: Adobe Illustrator 27.0.0, SVG Export Plug-In . SVG Version: 6.00 Build 0)  -->
<svg version="1.1" id="Capa_1" xmlns="http://www.w3.org/2000/svg" xmlns:xlink="http://www.w3.org/1999/xlink" x="0px" y="0px"
	 viewBox="0 0 1125 1125" style="enable-background:new 0 0 1125 1125;" xml:space="preserve">
<style type="text/css">
	.st0{fill:url(#SVGID_1_);}
	.st1{fill:url(#SVGID_00000097468860771258804270000000945312128340386946_);}
	.st2{fill:#FFFFFF;}
	.st3{fill:none;stroke:#000000;stroke-width:0.3;stroke-miterlimit:10;}
	.st4{display:none;}
	.st5{fill:#F9E9B8;}
	.st6{fill:none;stroke:#F9E9B8;stroke-width:0.3;stroke-miterlimit:10;}
	.st7{font-family:'ErotiqueAlternateTrial-Bold';}
	.st8{font-size:307.9108px;}
	.st9{letter-spacing:-33;}
	.st10{letter-spacing:-12;}
	.st11{letter-spacing:-18;}
	.st12{letter-spacing:-3;}
	.st13{letter-spacing:-27;}
	.st14{fill:none;stroke:#F9E9B8;stroke-width:2;stroke-miterlimit:10;}
</style>
<g>
	<text transform="matrix(1 0 0 1 282.6899 534.3193)"><tspan x="0" y="0" class="st5 st7 st8 st9">R</tspan><tspan x="199.8" y="0" class="st5 st7 st8 st10">ose</tspan></text>
	<text transform="matrix(1 0 0 1 119.7837 787.558)"><tspan x="0" y="0" class="st5 st7 st8 st11">M</tspan><tspan x="292.2" y="0" class="st5 st7 st8 st10">a</tspan><tspan x="464.9" y="0" class="st5 st7 st8 st12">r</tspan><tspan x="623.5" y="0" class="st5 st7 st8 st13">i</tspan><tspan x="687.9" y="0" class="st5 st7 st8 st10">e</tspan></text>
	<g>
		<g>
			<path class="st5" d="M229.2,441.7c0,0-6.2-55.1-37.4-75.2c-4.3-2.8-8.4-5.3-12.2-7.5c0.5-1.6,0.2-3.8,0.2-4.4
				c0-1.1-0.5-9,3.7-10.9c4.1-1.8,6.5-10.6,6.7-15.1c0.2-4.5-6.5-17.5,1.6-20.6c8-3.2,14,5,22.6,10c8.6,5.1,15.4,17.7,18.7,39
				C236.5,378.1,231.8,429.5,229.2,441.7z"/>
		</g>
		<path class="st5" d="M264.6,407c-0.3,0.6-1.7,2.7-2.1,3.6c-0.5,1.1-5.6,4.3-5.6,4.3l-9.4,11.3l-9.9,12.7c0,0,0.1,3.3-0.7,5.6
			c-0.8,2.2-4.4,3.9-5.9,5.2c-1.4,1.1-5.9,14.8-6.3,15.6c-0.4,0.8-9,17.3-11.8,11.5c-0.2-0.3-0.2-0.7-0.3-1.2
			c0.1-0.1,0.1-0.2,0.1-0.2s0.2-5.1,2.5-9.3c0.5-1.1,9.6-15.8,14-24.3c0,0,0-0.1,0-0.3c0.8,0.2,1.4,0.1,1.6-0.6
			c0.8-2.1,3.9-2.9,4.8-3.4c0.2-1.1,1-3.9,3-10.9c4.4-15.1,13.4-20.3,13.4-20.3c0,5-4.4,6.1-5.2,6.3c-0.8,0.3-2.9,5.8-4.3,7.6
			c-1.4,1.6-5.3,15.7-5.7,17.4c4.4-7.5,20-22.7,20.7-25.1C258.4,410.2,263.8,407.4,264.6,407z"/>
		<g>
			<path class="st5" d="M132.8,341.8v0.3h0c11.5,0,27.2,5.8,46.6,17.1c4.5,2.6,8.5,5,12.2,7.5c12.4,8,22.4,22.4,29.6,42.8
				c5.5,15.7,7.4,29.3,7.7,31.9v0.3c-3,5.8-8.2,14.5-11.4,19.7c-1.5,2.5-2.5,4.2-2.7,4.5c-2.1,4-2.5,8.8-2.5,9.4l0,0l0,0
				c-1.3,1.9-15.9,24.1-18.7,29.9c-2,4.1-11.5,13.7-17.9,20c-3,3-5.2,5.1-5.7,5.9c-1.5,2-2,3.3-2.3,4c-0.1,0.2-0.1,0.3-0.2,0.4
				c-0.1-0.1-0.2-0.2-0.4-0.3c-0.7-0.6-1.9-1.8-4.7-3.4c-1.5-0.9-3.1-1.3-4.9-1.3c-4.5,0-8.8,2.7-10.4,4.1c-0.7,0.6-1.2,1.1-1.6,1.4
				c-0.5,0.4-0.9,0.8-1.1,0.9c-0.1-0.2-0.1-0.6-0.2-1c-0.2-1-0.4-2.7-1.2-5.1c-1.2-3.7-7.2-4.4-10.4-4.8c-0.5-0.1-1-0.1-1.3-0.2
				c0.9-1.2,2-5,2.3-9.9c0.2-5-4.7-7.8-6.6-8.9c-0.2-0.1-0.3-0.2-0.4-0.2c0.5-1.3,1.3-2.4,2.1-3.5c1.1-1.4,2.1-2.8,2.1-4.3
				c0.1-3.3,0-6.5-1.5-8.9c-1.6-2.6-4.1-3.3-5-3.5c-0.1,0-0.2,0-0.3,0c-0.5,0-1.1,0.2-1.6,0.4c-0.3,0.1-0.6,0.2-0.9,0.2
				c0-0.1,0.2-0.4,0.6-1c1.6-2.4,2-6.3,2-8.3c0-0.9-0.5-2.3-1-4c-0.6-1.9-1.3-4-1.4-5.6c-0.1-2.7,4.9-7.6,10.7-9.3
				c1.7-0.5,3.6-0.8,5.2-1.1c3.2-0.6,4.7-0.9,4.8-1.7c0.1-0.6-0.6-1-2.3-1.7c-5.8-2.2-7.3-7.5-7.4-8.9c-0.1-0.7-0.4-2.4-0.8-4.4
				c-0.5-2.4-1-5.1-1.2-6.5c-0.2-2.3,4.2-10.8,5.9-11.3c1.5-0.4,0.9-3.4-0.2-8c-0.4-1.5-0.7-2.9-0.8-3.8c-0.4-2.9,3.6-8.4,4.9-8.7
				c0.2,0,0.4-0.1,0.5-0.3c0.4-0.7-0.3-2.2-1.5-5c-1-2.4-2.3-5.3-2.5-7.5c-0.2-1.9,0.1-3.5,0.3-5c0.3-2.1,0.6-3.7-0.7-4.8
				c-1.8-1.6-4.7-5.1-6.4-8.1c-0.6-1-0.9-2.2-1.1-3.4c-0.4-2-0.8-3.8-3-4.6c-3.2-1.2-6-4.6-6.1-5.1c-0.1-0.4-0.7-7.9,2.4-12.8
				c1.5-2.3,3.6-3.7,6.3-4c1.2-0.2,2.5-0.2,3.9-0.2L132.8,341.8 M132.8,341.8c-1.4,0-2.7,0.1-3.9,0.2c-10.3,1.2-9.2,16.5-9,17.2
				c0.2,0.7,3.1,4,6.3,5.3c3.3,1.1,2.2,5,3.9,7.9c1.6,3,4.5,6.5,6.5,8.2c2,1.7-0.2,5.1,0.2,9.6s5.3,12.2,3.8,12.4
				c-1.6,0.3-5.6,6-5.2,9c0.3,3,3.1,11,1.2,11.5c-1.8,0.6-6.3,9.2-6.1,11.7c0.2,2.5,1.8,9.3,2,10.9c0.1,1.6,1.6,6.9,7.6,9.1
				c5.8,2.3-1.9,2.3-7.7,3.9c-5.8,1.7-11,6.6-10.9,9.6c0.2,3,2.4,7.8,2.4,9.6c0,1.9-0.4,5.8-2,8.1c-0.8,1.2-0.8,1.5-0.4,1.5
				c0.5,0,1.8-0.6,2.5-0.6c0.1,0,0.1,0,0.2,0c1.3,0.2,3.4,1.1,4.8,3.4c1.5,2.4,1.6,5.4,1.5,8.8c-0.1,2.6-3.3,4.8-4.4,7.9
				c0.9,0.7,7.3,3.5,7.1,9c-0.3,5.4-1.7,9.2-2.5,9.9c-0.8,0.7,10.3,0.1,11.9,5c1.4,4.3,1.1,6.3,1.6,6.3c0.4,0,1.1-0.8,3-2.4
				c1.8-1.5,6-4.1,10.2-4.1c1.6,0,3.3,0.4,4.8,1.3c4.1,2.4,4.8,3.8,5.2,3.8c0.4,0,0.4-1.4,2.7-4.6c1.8-2.5,20.8-19.9,23.7-26
				c2.7-5.7,17.2-27.8,18.6-29.9c0.1-0.1,0.1-0.2,0.1-0.2s0.2-5.1,2.5-9.3c0.5-1.1,9.6-15.8,14-24.3c0,0,0-0.1,0-0.3
				c-0.6-4.6-7.6-55.7-37.4-74.9c-4.3-2.8-8.4-5.3-12.2-7.5C158.2,346.5,143.3,341.8,132.8,341.8L132.8,341.8z"/>
		</g>
		<path class="st6" d="M135.2,459.4c0,0,41.8-8.7,54.3-5.9c12.5,2.8,27.5-0.2,31,6.2"/>
		<path class="st4" d="M218,435.6c0.6,1-15.1-31.8-62.9-41.6c0,0-3.1-0.5-4.9-1.3c-1.8-0.8-6.8-4.7-8.6-1l8.2,6
			C149.8,397.7,199.6,406.7,218,435.6z"/>
		<path class="st4" d="M138.7,405.2c0,0,54.7,6.8,79.4,38.4c0,0-52.8-29.4-80.1-25.7C135.2,412.7,136,408.4,138.7,405.2z"/>
	</g>
</g>
</svg>
